<?xml version="1.0" encoding="utf-8"?>
<!DOCTYPE svg PUBLIC "-//W3C//DTD SVG 1.1//EN" "http://www.w3.org/Graphics/SVG/1.1/DTD/svg11.dtd">
<svg version="1.1" id="Calque_1" xmlns="http://www.w3.org/2000/svg" xmlns:xlink="http://www.w3.org/1999/xlink" x="0px" y="0px"
	 width="58.25px" height="66.125px" viewBox="-1.356 -1.108 58.25 66.125" enable-background="new -1.356 -1.108 58.25 66.125"
	 xml:space="preserve">
<path fill="#87B153" d="M34.906,24.641v-7.815L17.454,6.749L0,16.825v7.815l17.453-10.076L34.906,24.641z M38.464,34.137l6.77-3.906
	V10.076L27.781,0l-6.768,3.908l17.451,10.076V34.137L38.464,34.137z M17.454,17.534L0,27.61v20.153l6.769,3.908V31.518
	l17.453-10.076L17.454,17.534z M48.771,13.049v20.152L31.318,43.278l6.768,3.907L55.539,37.11V16.956L48.771,13.049z M19.763,40.951
	v7.814l17.452,10.076l18.323-10.644v-7.813L37.215,51.025L19.763,40.951z M17.133,29.645l-6.768,3.908l-0.001,20.151l17.453,10.078
	l6.769-3.909L17.133,49.799V29.645z"/>
</svg>
