<?xml version="1.0" encoding="utf-8"?>
<!DOCTYPE svg PUBLIC "-//W3C//DTD SVG 1.1//EN" "http://www.w3.org/Graphics/SVG/1.1/DTD/svg11.dtd">
<svg version="1.1" id="Livello_1" xmlns="http://www.w3.org/2000/svg" xmlns:xlink="http://www.w3.org/1999/xlink" x="0px" y="0px"
	 width="100px" height="100px" viewBox="0 0 100 100" enable-background="new 0 0 100 100" xml:space="preserve">
<path d="M17.236,20.907c-0.013,0.162-0.027,0.325-0.035,0.489c0,0.006,0,0.012-0.002,0.019c-0.015,0.261-0.022,0.524-0.022,0.788
	c0,8.001,6.466,14.485,14.442,14.485c7.978,0,14.444-6.484,14.444-14.485c0-0.771-0.06-1.527-0.178-2.265
	c0-0.007,0-0.013-0.005-0.019c-0.045-0.297-0.105-0.592-0.168-0.882c-0.37-2.955,1.955-2.79,1.955-2.79h5.058
	c1.506,0.01,1.643,1.406,1.523,2.479c-0.098,0.396-0.178,0.798-0.242,1.205c0,0.003-0.003,0.009-0.003,0.009l0.003-0.005
	c-0.117,0.74-0.178,1.497-0.178,2.27c0,8,6.466,14.485,14.439,14.485c7.978,0,14.443-6.484,14.443-14.485
	c0-0.266-0.011-0.527-0.021-0.789c0-0.007,0-0.012,0-0.018c-0.012-0.165-0.025-0.329-0.041-0.49c0.035-2.253,3.15-1.748,3.15-1.748
	v-4.959h-1.477v-0.002H84.32c-3,0-6.615-2.958-6.615-2.958l0.002,0.005c-2.532-2.195-5.828-3.526-9.439-3.526
	c-4.595,0-8.688,2.156-11.328,5.511l0.006-0.015c0,0-2-0.183-3.764-0.477c-1.761-0.293-5.25-0.196-6.493,0
	c-1.239,0.196-3.879,0.31-3.879,0.31h-0.002c-2.645-3.251-6.677-5.33-11.186-5.33c-6.439,0-6.909,1.333-9.439,3.526V11.24
	c0,0-3.613,2.958-6.614,2.958h-1.481v4.962C14.088,19.16,17.206,18.654,17.236,20.907z M68.221,10.75
	c6.67,0,12.071,5.405,12.071,12.071s-5.401,12.071-12.071,12.071c-6.664,0-12.07-5.403-12.07-12.071
	C56.15,16.155,61.557,10.75,68.221,10.75z M31.664,10.75c6.667,0,12.072,5.405,12.072,12.071s-5.405,12.071-12.072,12.071
	c-6.664,0-12.069-5.403-12.069-12.071C19.595,16.155,25,10.75,31.664,10.75z M88.613,45.158c0.193-4.322,1.437-9.015,0.516-14.347
	c-1.132,3.375-2.33,7.115-3.458,10.197c-0.206,0.565-0.293,1.12-0.519,1.555c-0.266,0.512-0.848,0.896-1.209,1.383
	c-0.114,0.15-0.069,0.384-0.172,0.519c-0.703,0.918-1.446,1.741-2.074,2.592c-0.396,0.533-0.61,1.211-1.211,1.556
	c-1.098,0.053-2.11,0.196-3.111,0.345c0.118,1.673-0.167,2.944-0.173,4.494c-0.894,0.437-1.874,0.776-2.765,1.212
	c-0.908,2.26-1.43,4.909-2.42,7.085c-0.201-0.051-0.382-0.123-0.574-0.184c-0.078-2.45,0.473-4.686,0.227-6.89
	c-0.152-1.361-0.814-3.066-1.211-3.976c-0.307-0.7-0.738-1.778-1.036-2.248c-0.09-0.14-0.345-0.424-0.452-0.561
	c-0.168-0.209-0.264-0.294-0.41-0.476c-0.855-1.052-2.277-2.407-3.287-3.111c-0.051-0.036-0.627-0.542-0.864-0.691
	c-2.085-1.314-4.101-1.71-6.742-2.212c-1.163-0.223-2.524-0.498-3.631-0.346c-1.544,0.213-2.521,1.276-3.974,1.901
	c-0.57-0.469-1.273-0.713-1.903-1.035c-0.663-0.344-1.406-0.924-2.072-1.037c-0.861-0.145-1.732,0.074-2.593,0.173
	c-2.728,0.311-4.835,1.626-6.569,2.611c-0.353,0.199-1.814,0.269-1.902,0.309c-0.055,0.024-0.63,0.649-0.69,0.691
	c-1.231,0.851-2.27,1.716-3.113,2.748c-0.69,0.85-0.918,1.446-1.381,2.42c-0.232,0.484-0.513,0.766-0.69,1.209
	c-0.421,1.043-0.773,2.176-0.866,2.939c-0.329,2.678,0.04,5.202,0.146,7.659c-0.399,0.148-0.798,0.297-1.191,0.451
	c-0.634-2.532-1.589-4.743-2.245-7.26c-1.058-0.381-2.222-0.655-2.94-1.381c0.133-1.632-0.22-2.772-0.173-4.322
	c-1.095-0.053-2.107-0.197-3.11-0.346c-0.943-0.869-1.601-2.026-2.417-3.11c-0.788-1.04-1.839-2.044-2.42-3.284
	c-0.183-0.383-0.371-0.952-0.521-1.382c-1.188-3.423-2.117-6.773-3.458-9.854c-0.04,2.416-0.305,4.557-0.172,6.742
	c0.132,2.093,0.586,4.09,0.693,6.05c0.055,1.02-0.05,2.058,0,3.112c0.082,1.847,0.172,3.409,0.688,4.495
	c0.555,1.153,1.383,2.413,1.731,3.457c0.195,0.588,0.198,1.276,0.345,1.901c0.368,1.543,0.891,3.563,1.211,4.84
	c0.34,1.366,0.58,1.397,1.208,2.247c0.25,0.341,0.56,0.845,0.693,1.039c0.187,0.286,0.408,0.527,0.518,0.689
	c0.19,0.289,0.411,0.529,0.516,0.692c0.108,0.16,0.253,0.214,0.348,0.347c0.173,0.24,0.176,0.618,0.343,0.863
	c0.266,0.379,0.396,0.316,0.521,0.691c0.148,0.441,0.098,1.06,0.173,1.556c0.215,1.401,0.625,3.052,0.69,4.497
	c1.376,1.934,3.289,3.45,4.497,5.357c0.661,1.047,1.184,2.297,1.727,3.455c0.561,1.193,1.104,2.358,1.557,3.631
	c0.505,0.076,0.818,0.557,1.209,0.865c0.213,0.166,0.463,0.164,0.693,0.346c0.203,0.16,0.318,0.533,0.518,0.691
	c0.175,0.135,0.458,0.172,0.691,0.346c0.678,0.496,1.161,1.07,1.902,1.383c1.266,0.529,3.306,0.646,5.185,1.037
	c1.837,0.381,3.657,1.035,5.188,1.035c1.787,0,3.399-0.732,5.013-0.862c0.72,0.373,1.433,0.753,2.074,1.21
	c0.974-0.352,1.865-0.787,2.769-1.21c1.402,0.137,2.963,0.723,4.494,0.69c0.742-0.016,1.709-0.332,2.59-0.519
	c2.16-0.461,4.562-1.011,6.398-1.383c0.487-0.099,1.076-0.046,1.381-0.175c0.168-0.068,0.274-0.325,0.52-0.517
	c0.537-0.422,0.828-0.547,1.211-0.864c1.078-0.904,2.172-1.766,3.109-2.422c0.484-1.252,0.984-2.406,1.555-3.631
	c0.615-1.316,1.453-3.197,2.25-4.146c0.955-1.146,1.912-2.248,2.766-3.283c0.445-0.544,0.844-0.874,1.036-1.385
	c0.343-0.889,0.368-1.963,0.521-2.938c0.068-0.45,0.088-0.965,0.174-1.558c0.064-0.436,0.033-1.148,0.172-1.555
	c0.168-0.488,0.697-0.906,1.035-1.383c0.701-0.986,1.688-2.267,2.25-3.111c0.277-0.42,0.508-0.763,0.688-1.211
	c0.37-0.912,0.423-2.092,0.692-3.283c0.121-0.518,0.398-1.043,0.521-1.555c0.301-1.271,0.469-2.33,0.863-3.285
	c0.197-0.47,0.46-0.883,0.691-1.383c0.207-0.443,0.302-1.078,0.52-1.555c0.255-0.562,0.602-0.889,0.693-1.383
	C88.881,48.327,88.54,46.685,88.613,45.158z M67.002,59.85c-1.061,2.625-2.143,5.231-3.456,7.604
	c-1.325-0.351-2.485-0.86-3.804-1.209c-0.946,0.381-1.27,1.382-2.25,1.728c-1.012-1.138-2.202-2.445-3.456-3.283
	c-0.894-0.599-1.611-1.188-2.42-1.729c-0.179-0.12-0.308-0.374-0.519-0.52c-1.512-1.055-1.157-0.847-2.248,0
	c-0.434,0.334-0.909,0.594-1.039,0.692c-2.309,1.731-4.128,3.279-5.875,5.013c-0.854-0.474-1.345-1.308-2.248-1.729
	c-1.131,0.6-2.605,0.854-3.804,1.382c-1.241-2.562-2.332-5.274-3.631-7.776c-0.123,0.066-0.256,0.123-0.382,0.187
	c0.07-0.099,0.139-0.205,0.216-0.349c0.821-1.547,0.295-3.334,1.036-4.84c0.576-1.164,2.861-3.291,3.977-3.494
	c1.539-0.277,3.448-1.674,5.358-1.47c2.807,0.295,6.248,0.974,7.432-0.865c0.7,0.573,1.161,1.192,2.074,1.384
	c1.534,0.322,3.539-0.162,5.36-0.346c1.875-0.188,3.992-0.65,5.529-0.345c0.502,0.1,1.91,2.158,2.264,2.318
	c0.057,0.025,0.008,1.295,0.074,1.338c0.377,0.246,0.513,0.387,0.773,0.617c1.509,1.327,1.013,4.28,1.856,5.983
	C67.552,60.041,67.287,59.935,67.002,59.85z"/>
</svg>
